<svg width="905" height="957" viewBox="0 0 905 957" fill="none" xmlns="http://www.w3.org/2000/svg">
<path d="M675.706 14.481C679.464 10.5925 686.508 3.51085 690.731 0.260742C688.669 4.50913 686.352 9.60428 684.016 13.6293C672.023 43.3437 656.284 73.7129 644.755 102.72C668.211 116.913 688.454 131.344 708.752 149.976C712.734 153.631 720.276 160.065 723.395 164.115C730.352 170.27 743.038 184.348 748.997 191.694C765.47 209.347 780.212 232.729 792.034 253.542C886.518 419.851 860.4 633.436 718.714 765.1C641.686 836.681 538.427 878.147 432.312 874.118C406.293 873.079 386.511 870.839 360.769 865.757C350.858 863.8 328.888 858.059 320.635 857.499L211.866 930.992C198.907 939.768 186.057 947.905 173.197 956.947C177.973 947.384 182.887 933.903 186.994 923.585L216.958 847.941C220.992 837.934 225.996 824.106 230.575 814.718C221.755 809.219 213.092 803.403 204.733 797.223C66.3204 694.913 0.192196 524.033 45.2851 356.089C45.5281 354.702 46.4134 352.072 46.852 350.619C53.0785 323.369 72.352 280.689 85.5132 257.078C141.266 157.061 237.786 80.3228 348.443 50.0434C408.588 33.5857 480.203 32.853 540.785 48.9714C547.521 50.7628 563.877 54.2769 576.706 60.0025C576.706 60.0025 595.457 68.8844 602.365 75.7926L633.945 50.1337C646.538 38.3603 662.603 25.2641 675.706 14.481Z" fill="#013051"/>
<path d="M101.596 424.205L103.002 424.763C106.501 421.459 116.051 408.154 119.804 403.486C146.127 370.753 173.335 338.808 201.258 307.487C202.358 306.254 200.609 307.231 202.665 306.187L202.025 307.611C203.125 309.905 211.903 319.811 213.968 322.414C228.366 340.582 244.939 356.604 258.35 375.55C260.882 379.125 266.475 386.196 268.236 389.859C258.084 398.919 171.122 414.803 153.82 419.636C149.105 420.954 99.6975 433.438 97.9014 433.381C98.3376 431.02 100.534 426.455 101.596 424.205Z" fill="#023E64"/>
<path d="M202.666 306.187C212.621 297.019 221.617 287.691 231.15 278.133C255.506 253.722 281.345 230.822 306.772 207.552C309.076 205.445 311.331 203.146 313.234 200.675C300.412 262.071 285.278 322.925 271.583 384.106C271.096 386.27 269.715 388.259 268.237 389.86C266.475 386.196 260.882 379.125 258.351 375.55C244.939 356.604 228.367 340.582 213.969 322.414C211.904 319.811 203.126 309.905 202.025 307.611L202.666 306.187Z" fill="#064E76"/>
<path d="M156.356 250.142C152.727 257.141 150.081 266.807 147.727 274.448C137.313 308.229 126.825 342 116.231 375.727C111.237 391.628 107.018 408.565 101.599 424.205C100.536 426.455 98.3399 431.019 97.9037 433.38L95.7958 435.231C89.2999 433.079 62.4704 387.587 58.1054 379.494C54.5159 372.84 50.0273 363.188 45.7645 356.796L45.2871 356.088C45.5301 354.701 46.4154 352.071 46.854 350.618C50.4093 351.252 70.5038 331.268 74.4501 327.542L124.212 280.308C132.281 272.494 147.676 256.48 156.356 250.142Z" fill="#064E76"/>
<path d="M723.394 164.114C730.351 170.269 743.037 184.347 748.996 191.693C748.418 192.263 748.788 192.012 747.809 192.315C743.432 186.161 723.601 171.726 723.394 164.114Z" fill="#001A32"/>
<path d="M675.707 14.481C679.465 10.5925 686.508 3.51085 690.732 0.260742C688.67 4.50913 686.353 9.60428 684.016 13.6293L683.4 12.5909C683.935 11.1007 684.429 10.0112 685.09 8.5705C684.091 8.11469 678.895 13.7712 675.707 14.481Z" fill="#023E64"/>
<path d="M486.438 376.663C537.265 397.357 586.843 422.158 636.51 445.564C640.571 447.478 645.096 449.84 648.901 452.213C553.598 535.195 467.441 630.377 373.191 714.806C347.848 737.507 324.21 764.293 298.512 786.878C291.207 793.295 284.602 801.18 277.284 807.519C281.807 797.117 288.974 784.754 294.286 774.258L335.949 692.417C355.541 653.465 373.71 613.035 392.502 573.606L420.352 516.323C421.613 513.663 426.414 505.667 426.066 503.501L425.743 503.042C427.151 502.593 428.096 502.62 428.807 501.088C444.479 467.364 459.403 433.258 475.393 399.672C478.472 393.205 482.658 382.083 486.438 376.663Z" fill="url(#paint0_linear_102_156)"/>
<path d="M277.429 425.562L513.058 213.059L577.706 154.105C586.247 146.303 595.512 136.893 604.278 129.614C595.267 146.059 586.785 164.625 578.621 181.641L533.121 276.795L499.271 347.078C496.841 352.096 486.329 371.97 485.638 375.843L486.44 376.662C482.66 382.083 478.473 393.205 475.394 399.671C459.404 433.257 444.48 467.364 428.808 501.088C428.098 502.62 427.153 502.593 425.744 503.042C378.053 477.494 325.776 449.294 277.429 425.562Z" fill="#FED01E"/>
<path d="M611.274 189.425C619.563 199.609 627.52 205.637 636.548 214.591C653.061 230.969 669.953 247.036 686.671 263.199C692.136 268.478 709.061 281.789 712.589 286.464C731.246 278.29 748.877 264.178 765.846 252.881C768.997 250.784 778.515 242.489 781.271 242.361C783.901 243.567 787.232 247.621 786.847 250.507C783.918 247.867 786.208 245.033 780.829 243.616C776.028 244.497 772.377 249.614 768.321 252.35C754.472 261.699 741.011 271.861 726.447 280.082C721.9 282.68 721.469 283.703 715.453 286.427C721.626 292.904 728.184 299.262 734.039 305.96L733.854 306.296C731.362 304.539 717.351 289.677 713.591 286.025C714.511 295.028 714.573 304.645 715.589 313.159C718.885 340.822 722.359 368.531 726.415 396.092C728.811 412.38 730.106 429.542 732.63 445.68C715.429 440.343 698.013 431.044 680.543 425.639C675.675 424.131 670.183 420.285 665.234 418.555C644.586 411.359 622.576 400.459 602.915 391.431C593.1 386.926 533.999 366.833 529.97 361.662C530.885 358.918 535.972 348.097 537.623 345.901C539.471 338.715 555.424 309.034 559.751 299.568C576.518 262.888 593.177 225.429 611.274 189.425Z" fill="url(#paint1_linear_102_156)"/>
<path d="M611.278 189.425C619.567 199.609 627.524 205.637 636.552 214.591C653.065 230.969 669.957 247.036 686.675 263.199C692.14 268.478 709.065 281.789 712.593 286.464C698.715 288.816 689.658 294.631 677.014 298.941C664.189 303.31 651.342 307.66 638.515 312.084L564.097 336.963C555.946 339.756 545.354 342.761 537.627 345.901C539.475 338.715 555.428 309.034 559.755 299.568C576.522 262.888 593.181 225.429 611.278 189.425Z" fill="#064E76"/>
<path d="M233.721 104.73C238.761 103.879 243.957 98.5617 248.87 97.2255C252.321 96.286 256.95 97.7599 260.485 96.5549C281.375 91.6726 302.551 84.2919 323.223 79.0884C373.381 66.4638 427.62 60.7063 479.249 63.7735C497.743 64.8724 523.838 66.0966 541.814 70.3752C522.61 80.3235 502.344 88.4803 483.238 98.7428C480.677 100.07 476.185 99.8276 473.764 101.1C468.529 103.854 463.535 108.041 458.236 110.648C435.893 121.638 414.473 133.324 393.013 145.922C377.635 154.95 360.661 162.575 345.46 172.168C342.093 174.147 323.601 184.355 321.787 186.365C315.61 189.766 306.765 192.676 300.029 195.503C285.436 201.627 270.958 207.694 256.093 213.136C223.092 225.217 189.415 239.483 156.242 250.687C161.707 242.73 165.288 233.88 170.072 225.628C188.733 193.441 201.507 158.737 218.701 125.883C222.488 118.649 226.645 108.953 233.721 104.73Z" fill="#023E64"/>
<path d="M233.721 104.731C238.426 110.58 244.041 115.414 249.146 120.891C256.631 128.921 263.816 136.875 271.723 144.516C283.534 155.93 296.225 166.058 309.012 176.326C311.05 177.963 320.073 185.503 321.787 186.366C315.61 189.767 306.765 192.676 300.029 195.503C285.436 201.627 270.958 207.695 256.093 213.136C223.092 225.218 189.415 239.484 156.242 250.688C161.707 242.731 165.288 233.881 170.072 225.628C188.733 193.442 201.507 158.737 218.701 125.884C222.488 118.649 226.645 108.954 233.721 104.731Z" fill="#064E76"/>
<path d="M130.444 618.716C128.397 619.885 127.86 621.314 125.949 621.817C122.947 617.848 120.457 588.036 119.577 581.543C117.01 563.308 114.201 545.139 111.37 526.934C107.015 498.939 102.169 470.99 98.2192 442.928C97.877 440.498 98.316 439.082 99.5957 437.056C106.891 434.942 171.9 491.919 180.921 500.747C189.12 508.77 219.026 539.114 227.407 541.51L227.841 542.482L226.692 542.768C221.772 546.116 216.808 550.096 212.256 553.932C187.837 574.506 161.023 592.065 137.265 613.404C135.27 615.198 132.79 617.398 130.444 618.716Z" fill="#023E64"/>
<path d="M674.778 474.649C677.362 477.435 684.889 509.809 686.564 515.422C695.483 545.3 702.858 575.439 710.548 605.561C709.679 606.148 701.629 604.189 699.717 604.212C662.966 604.673 626.621 599.697 589.986 598.574C574.292 598.128 560.207 594.905 545.229 594.039C552.726 588.367 558.371 581.321 565.018 574.81C600.57 539.978 640.016 510.291 674.778 474.649Z" fill="#023E64"/>
<path d="M243.38 448.38C277.082 464.057 311.556 478.633 344.432 496.047C357.204 502.812 373.13 510.467 384.089 519.857L297.207 533.064C275.636 536.457 249.494 541.083 227.844 542.482L227.41 541.51C232.211 510.968 237.975 478.88 243.38 448.38Z" fill="#064E76"/>
<path d="M538.263 140.454L538.991 140.652C538.616 141.297 525.947 152.292 525.069 153.063C513.384 163.313 422.942 248.348 417.681 248.029L417.292 245.577C414.716 242.121 373.659 218.556 366.709 214.517C354.862 207.86 343.451 199.227 331.098 193.244C330.039 192.732 330.091 192.424 329.645 191.387C330.982 190.365 372.255 184.315 378.127 183.166C419.571 175.051 460.638 166.235 500.971 153.565C513.574 149.606 526.208 145.917 538.263 140.454Z" fill="#064E76"/>
<path d="M39.1924 657.793C40.3814 658.701 66.2775 701.579 70.528 707.939C89.1035 735.737 110.699 760.858 132.149 786.408C125.634 783.499 120.155 782.397 113.255 780.8C98.3491 777.327 24.8232 761.47 18.2923 756.027C16.5374 749.997 24.2765 722.439 26.0213 715.104L39.1924 657.793Z" fill="#013051"/>
<path d="M109.808 147.907C111.968 147.59 112.978 147.258 114.649 148.549C114.814 153.482 67.9194 211.751 62.6418 223.385C60.9345 227.148 39.2599 261.541 36.8177 263.99C32.1569 258.962 28.7914 250.663 25.7646 244.364C21.0567 234.779 1.05567 197.702 0.891602 190.536C4.46114 185.007 33.8215 175.724 41.4893 172.912L109.808 147.907Z" fill="#013051"/>
<path d="M833.062 248.68C833.618 248.786 854.589 259.469 856.461 260.774C867.413 268.412 895.835 277.714 903.92 286.233C905.961 292.046 899.127 308.203 896.931 314.465L883.169 353.691C880.196 361.751 877.381 369.644 873.818 377.475C868.509 353.595 861.953 328.274 854.49 304.996C848.423 286.082 840.491 267.161 833.062 248.68Z" fill="#013051"/>
<defs>
<linearGradient id="paint0_linear_102_156" x1="494.809" y1="671.285" x2="363.325" y2="450.885" gradientUnits="userSpaceOnUse">
<stop stop-color="#FFC80F"/>
<stop offset="1" stop-color="#FEE33F"/>
</linearGradient>
<linearGradient id="paint1_linear_102_156" x1="584.253" y1="292.419" x2="742.511" y2="429.448" gradientUnits="userSpaceOnUse">
<stop stop-color="#003052"/>
<stop offset="1" stop-color="#074F77"/>
</linearGradient>
</defs>
</svg>
